<?xml version="1.0" standalone="no"?>
<svg xmlns:xlink="http://www.w3.org/1999/xlink" id="wave" style="transform:rotate(0deg); transition: 0.3s" viewBox="0 0 1440 190" version="1.1" xmlns="http://www.w3.org/2000/svg"><defs><linearGradient id="sw-gradient-0" x1="0" x2="0" y1="1" y2="0"><stop stop-color="rgba(243, 106, 62, 1)" offset="0%"/><stop stop-color="rgba(255, 179, 11, 1)" offset="100%"/></linearGradient></defs><path style="transform:translate(0, 0px); opacity:1" fill="url(#sw-gradient-0)" d="M0,76L60,79.2C120,82,240,89,360,98.2C480,108,600,120,720,107.7C840,95,960,57,1080,50.7C1200,44,1320,70,1440,66.5C1560,63,1680,32,1800,25.3C1920,19,2040,38,2160,38C2280,38,2400,19,2520,15.8C2640,13,2760,25,2880,31.7C3000,38,3120,38,3240,60.2C3360,82,3480,127,3600,120.3C3720,114,3840,57,3960,50.7C4080,44,4200,89,4320,91.8C4440,95,4560,57,4680,34.8C4800,13,4920,6,5040,12.7C5160,19,5280,38,5400,63.3C5520,89,5640,120,5760,126.7C5880,133,6000,114,6120,107.7C6240,101,6360,108,6480,117.2C6600,127,6720,139,6840,139.3C6960,139,7080,127,7200,126.7C7320,127,7440,139,7560,145.7C7680,152,7800,152,7920,148.8C8040,146,8160,139,8280,129.8C8400,120,8520,108,8580,101.3L8640,95L8640,190L8580,190C8520,190,8400,190,8280,190C8160,190,8040,190,7920,190C7800,190,7680,190,7560,190C7440,190,7320,190,7200,190C7080,190,6960,190,6840,190C6720,190,6600,190,6480,190C6360,190,6240,190,6120,190C6000,190,5880,190,5760,190C5640,190,5520,190,5400,190C5280,190,5160,190,5040,190C4920,190,4800,190,4680,190C4560,190,4440,190,4320,190C4200,190,4080,190,3960,190C3840,190,3720,190,3600,190C3480,190,3360,190,3240,190C3120,190,3000,190,2880,190C2760,190,2640,190,2520,190C2400,190,2280,190,2160,190C2040,190,1920,190,1800,190C1680,190,1560,190,1440,190C1320,190,1200,190,1080,190C960,190,840,190,720,190C600,190,480,190,360,190C240,190,120,190,60,190L0,190Z"/><defs><linearGradient id="sw-gradient-1" x1="0" x2="0" y1="1" y2="0"><stop stop-color="rgba(243, 106, 62, 1)" offset="0%"/><stop stop-color="rgba(255, 179, 11, 1)" offset="100%"/></linearGradient></defs><path style="transform:translate(0, 50px); opacity:0.9" fill="url(#sw-gradient-1)" d="M0,76L60,63.3C120,51,240,25,360,25.3C480,25,600,51,720,66.5C840,82,960,89,1080,82.3C1200,76,1320,57,1440,53.8C1560,51,1680,63,1800,57C1920,51,2040,25,2160,41.2C2280,57,2400,114,2520,120.3C2640,127,2760,82,2880,72.8C3000,63,3120,89,3240,107.7C3360,127,3480,139,3600,123.5C3720,108,3840,63,3960,38C4080,13,4200,6,4320,3.2C4440,0,4560,0,4680,0C4800,0,4920,0,5040,22.2C5160,44,5280,89,5400,91.8C5520,95,5640,57,5760,63.3C5880,70,6000,120,6120,123.5C6240,127,6360,82,6480,66.5C6600,51,6720,63,6840,63.3C6960,63,7080,51,7200,38C7320,25,7440,13,7560,19C7680,25,7800,51,7920,69.7C8040,89,8160,101,8280,110.8C8400,120,8520,127,8580,129.8L8640,133L8640,190L8580,190C8520,190,8400,190,8280,190C8160,190,8040,190,7920,190C7800,190,7680,190,7560,190C7440,190,7320,190,7200,190C7080,190,6960,190,6840,190C6720,190,6600,190,6480,190C6360,190,6240,190,6120,190C6000,190,5880,190,5760,190C5640,190,5520,190,5400,190C5280,190,5160,190,5040,190C4920,190,4800,190,4680,190C4560,190,4440,190,4320,190C4200,190,4080,190,3960,190C3840,190,3720,190,3600,190C3480,190,3360,190,3240,190C3120,190,3000,190,2880,190C2760,190,2640,190,2520,190C2400,190,2280,190,2160,190C2040,190,1920,190,1800,190C1680,190,1560,190,1440,190C1320,190,1200,190,1080,190C960,190,840,190,720,190C600,190,480,190,360,190C240,190,120,190,60,190L0,190Z"/><defs><linearGradient id="sw-gradient-2" x1="0" x2="0" y1="1" y2="0"><stop stop-color="rgba(243, 106, 62, 1)" offset="0%"/><stop stop-color="rgba(255, 179, 11, 1)" offset="100%"/></linearGradient></defs><path style="transform:translate(0, 100px); opacity:0.8" fill="url(#sw-gradient-2)" d="M0,19L60,22.2C120,25,240,32,360,57C480,82,600,127,720,139.3C840,152,960,133,1080,107.7C1200,82,1320,51,1440,53.8C1560,57,1680,95,1800,104.5C1920,114,2040,95,2160,85.5C2280,76,2400,76,2520,88.7C2640,101,2760,127,2880,139.3C3000,152,3120,152,3240,136.2C3360,120,3480,89,3600,63.3C3720,38,3840,19,3960,25.3C4080,32,4200,63,4320,79.2C4440,95,4560,95,4680,85.5C4800,76,4920,57,5040,41.2C5160,25,5280,13,5400,34.8C5520,57,5640,114,5760,117.2C5880,120,6000,70,6120,60.2C6240,51,6360,82,6480,79.2C6600,76,6720,38,6840,28.5C6960,19,7080,38,7200,57C7320,76,7440,95,7560,110.8C7680,127,7800,139,7920,148.8C8040,158,8160,165,8280,158.3C8400,152,8520,133,8580,123.5L8640,114L8640,190L8580,190C8520,190,8400,190,8280,190C8160,190,8040,190,7920,190C7800,190,7680,190,7560,190C7440,190,7320,190,7200,190C7080,190,6960,190,6840,190C6720,190,6600,190,6480,190C6360,190,6240,190,6120,190C6000,190,5880,190,5760,190C5640,190,5520,190,5400,190C5280,190,5160,190,5040,190C4920,190,4800,190,4680,190C4560,190,4440,190,4320,190C4200,190,4080,190,3960,190C3840,190,3720,190,3600,190C3480,190,3360,190,3240,190C3120,190,3000,190,2880,190C2760,190,2640,190,2520,190C2400,190,2280,190,2160,190C2040,190,1920,190,1800,190C1680,190,1560,190,1440,190C1320,190,1200,190,1080,190C960,190,840,190,720,190C600,190,480,190,360,190C240,190,120,190,60,190L0,190Z"/></svg>